<?xml version="1.0" encoding="UTF-8"?>
<!--This file has been generated by TaskJuggler. For details about TaskJuggler see http://www.taskjuggler.org--><svg width="1450" xmlns="http://www.w3.org/2000/svg" height="260" version="1.1" >
 <title>Gantt report.</title>
 <desc>Gantt diagram.</desc>
 <text x="720" y="12" fill="black" text-anchor="middle" font-family="Courrier" font-size="9" >Gantt report.</text>
 <text x="120" y="65" fill="black" transform="rotate(-45 120 65)" rotate="45" text-anchor="start" font-family="Courrier" font-size="6" >2009-06-06</text>
 <line stroke="grey" y1="70" stroke-width="1" y2="250" x1="120" x2="120" />
 <text x="152" y="65" fill="black" transform="rotate(-45 152 65)" rotate="45" text-anchor="start" font-family="Courrier" font-size="6" >2009-06-07</text>
 <line stroke="grey" y1="70" stroke-width="1" y2="250" x1="152" x2="152" />
 <text x="184" y="65" fill="black" transform="rotate(-45 184 65)" rotate="45" text-anchor="start" font-family="Courrier" font-size="6" >2009-06-08</text>
 <line stroke="grey" y1="70" stroke-width="1" y2="250" x1="184" x2="184" />
 <text x="217" y="65" fill="black" transform="rotate(-45 217 65)" rotate="45" text-anchor="start" font-family="Courrier" font-size="6" >2009-06-09</text>
 <line stroke="grey" y1="70" stroke-width="1" y2="250" x1="217" x2="217" />
 <text x="249" y="65" fill="black" transform="rotate(-45 249 65)" rotate="45" text-anchor="start" font-family="Courrier" font-size="6" >2009-06-10</text>
 <line stroke="grey" y1="70" stroke-width="1" y2="250" x1="249" x2="249" />
 <text x="282" y="65" fill="black" transform="rotate(-45 282 65)" rotate="45" text-anchor="start" font-family="Courrier" font-size="6" >2009-06-11</text>
 <line stroke="grey" y1="70" stroke-width="1" y2="250" x1="282" x2="282" />
 <text x="314" y="65" fill="black" transform="rotate(-45 314 65)" rotate="45" text-anchor="start" font-family="Courrier" font-size="6" >2009-06-12</text>
 <line stroke="grey" y1="70" stroke-width="1" y2="250" x1="314" x2="314" />
 <text x="347" y="65" fill="black" transform="rotate(-45 347 65)" rotate="45" text-anchor="start" font-family="Courrier" font-size="6" >2009-06-13</text>
 <line stroke="grey" y1="70" stroke-width="1" y2="250" x1="347" x2="347" />
 <text x="379" y="65" fill="black" transform="rotate(-45 379 65)" rotate="45" text-anchor="start" font-family="Courrier" font-size="6" >2009-06-14</text>
 <line stroke="grey" y1="70" stroke-width="1" y2="250" x1="379" x2="379" />
 <text x="411" y="65" fill="black" transform="rotate(-45 411 65)" rotate="45" text-anchor="start" font-family="Courrier" font-size="6" >2009-06-15</text>
 <line stroke="grey" y1="70" stroke-width="1" y2="250" x1="411" x2="411" />
 <text x="444" y="65" fill="black" transform="rotate(-45 444 65)" rotate="45" text-anchor="start" font-family="Courrier" font-size="6" >2009-06-16</text>
 <line stroke="grey" y1="70" stroke-width="1" y2="250" x1="444" x2="444" />
 <text x="476" y="65" fill="black" transform="rotate(-45 476 65)" rotate="45" text-anchor="start" font-family="Courrier" font-size="6" >2009-06-17</text>
 <line stroke="grey" y1="70" stroke-width="1" y2="250" x1="476" x2="476" />
 <text x="509" y="65" fill="black" transform="rotate(-45 509 65)" rotate="45" text-anchor="start" font-family="Courrier" font-size="6" >2009-06-18</text>
 <line stroke="grey" y1="70" stroke-width="1" y2="250" x1="509" x2="509" />
 <text x="541" y="65" fill="black" transform="rotate(-45 541 65)" rotate="45" text-anchor="start" font-family="Courrier" font-size="6" >2009-06-19</text>
 <line stroke="grey" y1="70" stroke-width="1" y2="250" x1="541" x2="541" />
 <text x="574" y="65" fill="black" transform="rotate(-45 574 65)" rotate="45" text-anchor="start" font-family="Courrier" font-size="6" >2009-06-20</text>
 <line stroke="grey" y1="70" stroke-width="1" y2="250" x1="574" x2="574" />
 <text x="606" y="65" fill="black" transform="rotate(-45 606 65)" rotate="45" text-anchor="start" font-family="Courrier" font-size="6" >2009-06-21</text>
 <line stroke="grey" y1="70" stroke-width="1" y2="250" x1="606" x2="606" />
 <text x="638" y="65" fill="black" transform="rotate(-45 638 65)" rotate="45" text-anchor="start" font-family="Courrier" font-size="6" >2009-06-22</text>
 <line stroke="grey" y1="70" stroke-width="1" y2="250" x1="638" x2="638" />
 <text x="671" y="65" fill="black" transform="rotate(-45 671 65)" rotate="45" text-anchor="start" font-family="Courrier" font-size="6" >2009-06-23</text>
 <line stroke="grey" y1="70" stroke-width="1" y2="250" x1="671" x2="671" />
 <text x="703" y="65" fill="black" transform="rotate(-45 703 65)" rotate="45" text-anchor="start" font-family="Courrier" font-size="6" >2009-06-24</text>
 <line stroke="grey" y1="70" stroke-width="1" y2="250" x1="703" x2="703" />
 <text x="736" y="65" fill="black" transform="rotate(-45 736 65)" rotate="45" text-anchor="start" font-family="Courrier" font-size="6" >2009-06-25</text>
 <line stroke="grey" y1="70" stroke-width="1" y2="250" x1="736" x2="736" />
 <text x="768" y="65" fill="black" transform="rotate(-45 768 65)" rotate="45" text-anchor="start" font-family="Courrier" font-size="6" >2009-06-26</text>
 <line stroke="grey" y1="70" stroke-width="1" y2="250" x1="768" x2="768" />
 <text x="801" y="65" fill="black" transform="rotate(-45 801 65)" rotate="45" text-anchor="start" font-family="Courrier" font-size="6" >2009-06-27</text>
 <line stroke="grey" y1="70" stroke-width="1" y2="250" x1="801" x2="801" />
 <text x="833" y="65" fill="black" transform="rotate(-45 833 65)" rotate="45" text-anchor="start" font-family="Courrier" font-size="6" >2009-06-28</text>
 <line stroke="grey" y1="70" stroke-width="1" y2="250" x1="833" x2="833" />
 <text x="865" y="65" fill="black" transform="rotate(-45 865 65)" rotate="45" text-anchor="start" font-family="Courrier" font-size="6" >2009-06-29</text>
 <line stroke="grey" y1="70" stroke-width="1" y2="250" x1="865" x2="865" />
 <text x="898" y="65" fill="black" transform="rotate(-45 898 65)" rotate="45" text-anchor="start" font-family="Courrier" font-size="6" >2009-06-30</text>
 <line stroke="grey" y1="70" stroke-width="1" y2="250" x1="898" x2="898" />
 <text x="930" y="65" fill="black" transform="rotate(-45 930 65)" rotate="45" text-anchor="start" font-family="Courrier" font-size="6" >2009-07-01</text>
 <line stroke="grey" y1="70" stroke-width="1" y2="250" x1="930" x2="930" />
 <text x="963" y="65" fill="black" transform="rotate(-45 963 65)" rotate="45" text-anchor="start" font-family="Courrier" font-size="6" >2009-07-02</text>
 <line stroke="grey" y1="70" stroke-width="1" y2="250" x1="963" x2="963" />
 <text x="995" y="65" fill="black" transform="rotate(-45 995 65)" rotate="45" text-anchor="start" font-family="Courrier" font-size="6" >2009-07-03</text>
 <line stroke="grey" y1="70" stroke-width="1" y2="250" x1="995" x2="995" />
 <text x="1028" y="65" fill="black" transform="rotate(-45 1028 65)" rotate="45" text-anchor="start" font-family="Courrier" font-size="6" >2009-07-04</text>
 <line stroke="grey" y1="70" stroke-width="1" y2="250" x1="1028" x2="1028" />
 <text x="1060" y="65" fill="black" transform="rotate(-45 1060 65)" rotate="45" text-anchor="start" font-family="Courrier" font-size="6" >2009-07-05</text>
 <line stroke="grey" y1="70" stroke-width="1" y2="250" x1="1060" x2="1060" />
 <text x="1092" y="65" fill="black" transform="rotate(-45 1092 65)" rotate="45" text-anchor="start" font-family="Courrier" font-size="6" >2009-07-06</text>
 <line stroke="grey" y1="70" stroke-width="1" y2="250" x1="1092" x2="1092" />
 <text x="1125" y="65" fill="black" transform="rotate(-45 1125 65)" rotate="45" text-anchor="start" font-family="Courrier" font-size="6" >2009-07-07</text>
 <line stroke="grey" y1="70" stroke-width="1" y2="250" x1="1125" x2="1125" />
 <text x="1157" y="65" fill="black" transform="rotate(-45 1157 65)" rotate="45" text-anchor="start" font-family="Courrier" font-size="6" >2009-07-08</text>
 <line stroke="grey" y1="70" stroke-width="1" y2="250" x1="1157" x2="1157" />
 <text x="1190" y="65" fill="black" transform="rotate(-45 1190 65)" rotate="45" text-anchor="start" font-family="Courrier" font-size="6" >2009-07-09</text>
 <line stroke="grey" y1="70" stroke-width="1" y2="250" x1="1190" x2="1190" />
 <text x="1222" y="65" fill="black" transform="rotate(-45 1222 65)" rotate="45" text-anchor="start" font-family="Courrier" font-size="6" >2009-07-10</text>
 <line stroke="grey" y1="70" stroke-width="1" y2="250" x1="1222" x2="1222" />
 <text x="1255" y="65" fill="black" transform="rotate(-45 1255 65)" rotate="45" text-anchor="start" font-family="Courrier" font-size="6" >2009-07-11</text>
 <line stroke="grey" y1="70" stroke-width="1" y2="250" x1="1255" x2="1255" />
 <text x="1287" y="65" fill="black" transform="rotate(-45 1287 65)" rotate="45" text-anchor="start" font-family="Courrier" font-size="6" >2009-07-12</text>
 <line stroke="grey" y1="70" stroke-width="1" y2="250" x1="1287" x2="1287" />
 <text x="1320" y="65" fill="black" transform="rotate(-45 1320 65)" rotate="45" text-anchor="start" font-family="Courrier" font-size="6" >2009-07-13</text>
 <line stroke="grey" y1="70" stroke-width="1" y2="250" x1="1320" x2="1320" />
 <line stroke="red" y1="70" stroke-width="1" y2="250" x1="476" x2="476" />
<!--My Project--><!--Scenario : Plan--> <polyline fill="black" points="120,75 118,73 118,71 1257,71 1257,73 1255,75 1253,73 122,73 120,75" stroke="none" />
 <text x="110" y="75" fill="black" text-anchor="end" font-family="Courrier" font-size="6" >My Project</text>
<!--Scenario : Delayed--> <polyline fill="black" points="120,84 118,82 118,80 1322,80 1322,82 1320,84 1318,82 122,82 120,84" stroke="none" />
 <text x="110" y="84" fill="black" text-anchor="end" font-family="Courrier" font-size="6" >My Project</text>
<!--Planning Phase--><!--Scenario : Plan--> <polyline fill="black" points="120,93 118,91 118,89 1257,89 1257,91 1255,93 1253,91 122,91 120,93" stroke="none" />
 <text x="110" y="93" fill="black" text-anchor="end" font-family="Courrier" font-size="6" >Planning Phase</text>
<!--Scenario : Delayed--> <polyline fill="black" points="120,102 118,100 118,98 1322,98 1322,100 1320,102 1318,100 122,100 120,102" stroke="none" />
 <text x="110" y="102" fill="black" text-anchor="end" font-family="Courrier" font-size="6" >Planning Phase</text>
<!--Conception--><!--Scenario : Plan--> <rect width="162" x="120" y="106" fill="lightblue" height="6" stroke="black" stroke-width="1" />
 <rect width="162" x="120" y="108" fill="black" height="2" stroke="none" />
 <text x="110" y="111" fill="black" text-anchor="end" font-family="Courrier" font-size="6" >Conception</text>
 <text x="292" y="111" fill="black" text-anchor="start" font-family="Courrier" font-size="6" >100%</text>
<!--Scenario : Delayed--> <rect width="162" x="120" y="115" fill="lightblue" height="6" stroke="black" stroke-width="1" />
 <rect width="162" x="120" y="117" fill="black" height="2" stroke="none" />
 <text x="110" y="120" fill="black" text-anchor="end" font-family="Courrier" font-size="6" >Conception</text>
 <text x="292" y="120" fill="black" text-anchor="start" font-family="Courrier" font-size="6" >100%</text>
<!--Interfaces definition--><!--Scenario : Plan--> <rect width="162" x="282" y="124" fill="lightblue" height="6" stroke="black" stroke-width="1" />
 <rect width="162" x="282" y="126" fill="black" height="2" stroke="none" />
 <text x="272" y="129" fill="black" text-anchor="end" font-family="Courrier" font-size="6" >Interfaces definition</text>
 <text x="454" y="129" fill="black" text-anchor="start" font-family="Courrier" font-size="6" >100%</text>
<!--Scenario : Delayed--> <rect width="162" x="282" y="133" fill="lightblue" height="6" stroke="black" stroke-width="1" />
 <rect width="162" x="282" y="135" fill="black" height="2" stroke="none" />
 <text x="272" y="138" fill="black" text-anchor="end" font-family="Courrier" font-size="6" >Interfaces definition</text>
 <text x="454" y="138" fill="black" text-anchor="start" font-family="Courrier" font-size="6" >100%</text>
<!--Dev part1--><!--Scenario : Plan--> <rect width="162" x="282" y="142" fill="lightblue" height="6" stroke="black" stroke-width="1" />
 <rect width="145" x="282" y="144" fill="black" height="2" stroke="none" />
 <text x="272" y="147" fill="black" text-anchor="end" font-family="Courrier" font-size="6" >Dev part1</text>
 <text x="454" y="147" fill="black" text-anchor="start" font-family="Courrier" font-size="6" >90%</text>
<!--Scenario : Delayed--> <rect width="162" x="282" y="151" fill="lightblue" height="6" stroke="black" stroke-width="1" />
 <rect width="145" x="282" y="153" fill="black" height="2" stroke="none" />
 <text x="272" y="156" fill="black" text-anchor="end" font-family="Courrier" font-size="6" >Dev part1</text>
 <text x="454" y="156" fill="black" text-anchor="start" font-family="Courrier" font-size="6" >90%</text>
<!--Dev part2--><!--Scenario : Plan--> <rect width="162" x="444" y="160" fill="lightblue" height="6" stroke="black" stroke-width="1" />
 <rect width="32" x="444" y="162" fill="black" height="2" stroke="none" />
 <text x="434" y="165" fill="black" text-anchor="end" font-family="Courrier" font-size="6" >Dev part2</text>
 <text x="616" y="165" fill="black" text-anchor="start" font-family="Courrier" font-size="6" >20%</text>
<!--Scenario : Delayed--> <rect width="227" x="444" y="169" fill="lightblue" height="6" stroke="black" stroke-width="1" />
 <rect width="45" x="444" y="171" fill="black" height="2" stroke="none" />
 <text x="434" y="174" fill="black" text-anchor="end" font-family="Courrier" font-size="6" >Dev part2</text>
 <text x="681" y="174" fill="black" text-anchor="start" font-family="Courrier" font-size="6" >20%</text>
<!--Dev part3--><!--Scenario : Plan--> <rect width="162" x="606" y="178" fill="lightblue" height="6" stroke="black" stroke-width="1" />
 <rect width="0" x="606" y="180" fill="black" height="2" stroke="none" />
 <text x="596" y="183" fill="black" text-anchor="end" font-family="Courrier" font-size="6" >Dev part3</text>
 <text x="778" y="183" fill="black" text-anchor="start" font-family="Courrier" font-size="6" >0%</text>
<!--Scenario : Delayed--> <rect width="162" x="671" y="187" fill="lightblue" height="6" stroke="black" stroke-width="1" />
 <rect width="0" x="671" y="189" fill="black" height="2" stroke="none" />
 <text x="661" y="192" fill="black" text-anchor="end" font-family="Courrier" font-size="6" >Dev part3</text>
 <text x="843" y="192" fill="black" text-anchor="start" font-family="Courrier" font-size="6" >0%</text>
<!--Pre-tests--><!--Scenario : Plan--> <rect width="162" x="768" y="196" fill="lightblue" height="6" stroke="black" stroke-width="1" />
 <rect width="0" x="768" y="198" fill="black" height="2" stroke="none" />
 <text x="758" y="201" fill="black" text-anchor="end" font-family="Courrier" font-size="6" >Pre-tests</text>
 <text x="940" y="201" fill="black" text-anchor="start" font-family="Courrier" font-size="6" >0%</text>
<!--Scenario : Delayed--> <rect width="162" x="833" y="205" fill="lightblue" height="6" stroke="black" stroke-width="1" />
 <rect width="0" x="833" y="207" fill="black" height="2" stroke="none" />
 <text x="823" y="210" fill="black" text-anchor="end" font-family="Courrier" font-size="6" >Pre-tests</text>
 <text x="1005" y="210" fill="black" text-anchor="start" font-family="Courrier" font-size="6" >0%</text>
<!--Auqlification--><!--Scenario : Plan--> <rect width="162" x="930" y="214" fill="lightblue" height="6" stroke="black" stroke-width="1" />
 <rect width="0" x="930" y="216" fill="black" height="2" stroke="none" />
 <text x="920" y="219" fill="black" text-anchor="end" font-family="Courrier" font-size="6" >Auqlification</text>
 <text x="1102" y="219" fill="black" text-anchor="start" font-family="Courrier" font-size="6" >0%</text>
<!--Scenario : Delayed--> <rect width="162" x="995" y="223" fill="lightblue" height="6" stroke="black" stroke-width="1" />
 <rect width="0" x="995" y="225" fill="black" height="2" stroke="none" />
 <text x="985" y="228" fill="black" text-anchor="end" font-family="Courrier" font-size="6" >Auqlification</text>
 <text x="1167" y="228" fill="black" text-anchor="start" font-family="Courrier" font-size="6" >0%</text>
<!--Acceptation--><!--Scenario : Plan--> <rect width="163" x="1092" y="232" fill="lightblue" height="6" stroke="black" stroke-width="1" />
 <rect width="0" x="1092" y="234" fill="black" height="2" stroke="none" />
 <text x="1082" y="237" fill="black" text-anchor="end" font-family="Courrier" font-size="6" >Acceptation</text>
 <text x="1265" y="237" fill="black" text-anchor="start" font-family="Courrier" font-size="6" >0%</text>
<!--Scenario : Delayed--> <rect width="163" x="1157" y="241" fill="lightblue" height="6" stroke="black" stroke-width="1" />
 <rect width="0" x="1157" y="243" fill="black" height="2" stroke="none" />
 <text x="1147" y="246" fill="black" text-anchor="end" font-family="Courrier" font-size="6" >Acceptation</text>
 <text x="1330" y="246" fill="black" text-anchor="start" font-family="Courrier" font-size="6" >0%</text>
<!--My Project--><!--Planning Phase--><!--Conception--> <path fill="none" stroke="darkorange" d="M282 109C300 109,264 127,282 127" />
 <path fill="none" stroke="darkorange" d="M282 109C318 109,246 145,282 145" />
 <path fill="none" stroke="darkorange" d="M282 118C300 118,264 136,282 136" />
 <path fill="none" stroke="darkorange" d="M282 118C318 118,246 154,282 154" />
<!--Interfaces definition--><!--Dev part1--> <path fill="none" stroke="darkorange" d="M444 145C462 145,426 163,444 163" />
 <path fill="none" stroke="darkorange" d="M444 154C462 154,426 172,444 172" />
<!--Dev part2--> <path fill="none" stroke="darkorange" d="M606 163C624 163,588 181,606 181" />
 <path fill="none" stroke="darkorange" d="M671 172C689 172,653 190,671 190" />
<!--Dev part3--> <path fill="none" stroke="darkorange" d="M768 181C786 181,750 199,768 199" />
 <path fill="none" stroke="darkorange" d="M833 190C851 190,815 208,833 208" />
<!--Pre-tests--> <path fill="none" stroke="darkorange" d="M930 199C948 199,912 217,930 217" />
 <path fill="none" stroke="darkorange" d="M995 208C1013 208,977 226,995 226" />
<!--Auqlification--> <path fill="none" stroke="darkorange" d="M1092 217C1110 217,1074 235,1092 235" />
 <path fill="none" stroke="darkorange" d="M1157 226C1175 226,1139 244,1157 244" />
<!--Acceptation--></svg>
