<?xml version="1.0" encoding="UTF-8"?>
<!--This file has been generated by TaskJuggler. For details about TaskJuggler see http://www.taskjuggler.org--><svg width="1450" xmlns="http://www.w3.org/2000/svg" height="152" version="1.1" >
 <title>Gantt report with links.</title>
 <desc>Gantt diagram.</desc>
 <text x="720" y="12" fill="black" text-anchor="middle" font-family="Courrier" font-size="9" >Gantt report with links.</text>
 <text x="120" y="65" fill="black" transform="rotate(-45 120 65)" rotate="45" text-anchor="start" font-family="Courrier" font-size="6" >2009-06-06</text>
 <line stroke="grey" y1="70" stroke-width="1" y2="142" x1="120" x2="120" />
 <text x="154" y="65" fill="black" transform="rotate(-45 154 65)" rotate="45" text-anchor="start" font-family="Courrier" font-size="6" >2009-06-07</text>
 <line stroke="grey" y1="70" stroke-width="1" y2="142" x1="154" x2="154" />
 <text x="188" y="65" fill="black" transform="rotate(-45 188 65)" rotate="45" text-anchor="start" font-family="Courrier" font-size="6" >2009-06-08</text>
 <line stroke="grey" y1="70" stroke-width="1" y2="142" x1="188" x2="188" />
 <text x="222" y="65" fill="black" transform="rotate(-45 222 65)" rotate="45" text-anchor="start" font-family="Courrier" font-size="6" >2009-06-09</text>
 <line stroke="grey" y1="70" stroke-width="1" y2="142" x1="222" x2="222" />
 <text x="257" y="65" fill="black" transform="rotate(-45 257 65)" rotate="45" text-anchor="start" font-family="Courrier" font-size="6" >2009-06-10</text>
 <line stroke="grey" y1="70" stroke-width="1" y2="142" x1="257" x2="257" />
 <text x="291" y="65" fill="black" transform="rotate(-45 291 65)" rotate="45" text-anchor="start" font-family="Courrier" font-size="6" >2009-06-11</text>
 <line stroke="grey" y1="70" stroke-width="1" y2="142" x1="291" x2="291" />
 <text x="325" y="65" fill="black" transform="rotate(-45 325 65)" rotate="45" text-anchor="start" font-family="Courrier" font-size="6" >2009-06-12</text>
 <line stroke="grey" y1="70" stroke-width="1" y2="142" x1="325" x2="325" />
 <text x="360" y="65" fill="black" transform="rotate(-45 360 65)" rotate="45" text-anchor="start" font-family="Courrier" font-size="6" >2009-06-13</text>
 <line stroke="grey" y1="70" stroke-width="1" y2="142" x1="360" x2="360" />
 <text x="394" y="65" fill="black" transform="rotate(-45 394 65)" rotate="45" text-anchor="start" font-family="Courrier" font-size="6" >2009-06-14</text>
 <line stroke="grey" y1="70" stroke-width="1" y2="142" x1="394" x2="394" />
 <text x="428" y="65" fill="black" transform="rotate(-45 428 65)" rotate="45" text-anchor="start" font-family="Courrier" font-size="6" >2009-06-15</text>
 <line stroke="grey" y1="70" stroke-width="1" y2="142" x1="428" x2="428" />
 <text x="462" y="65" fill="black" transform="rotate(-45 462 65)" rotate="45" text-anchor="start" font-family="Courrier" font-size="6" >2009-06-16</text>
 <line stroke="grey" y1="70" stroke-width="1" y2="142" x1="462" x2="462" />
 <text x="497" y="65" fill="black" transform="rotate(-45 497 65)" rotate="45" text-anchor="start" font-family="Courrier" font-size="6" >2009-06-17</text>
 <line stroke="grey" y1="70" stroke-width="1" y2="142" x1="497" x2="497" />
 <text x="531" y="65" fill="black" transform="rotate(-45 531 65)" rotate="45" text-anchor="start" font-family="Courrier" font-size="6" >2009-06-18</text>
 <line stroke="grey" y1="70" stroke-width="1" y2="142" x1="531" x2="531" />
 <text x="565" y="65" fill="black" transform="rotate(-45 565 65)" rotate="45" text-anchor="start" font-family="Courrier" font-size="6" >2009-06-19</text>
 <line stroke="grey" y1="70" stroke-width="1" y2="142" x1="565" x2="565" />
 <text x="600" y="65" fill="black" transform="rotate(-45 600 65)" rotate="45" text-anchor="start" font-family="Courrier" font-size="6" >2009-06-20</text>
 <line stroke="grey" y1="70" stroke-width="1" y2="142" x1="600" x2="600" />
 <text x="634" y="65" fill="black" transform="rotate(-45 634 65)" rotate="45" text-anchor="start" font-family="Courrier" font-size="6" >2009-06-21</text>
 <line stroke="grey" y1="70" stroke-width="1" y2="142" x1="634" x2="634" />
 <text x="668" y="65" fill="black" transform="rotate(-45 668 65)" rotate="45" text-anchor="start" font-family="Courrier" font-size="6" >2009-06-22</text>
 <line stroke="grey" y1="70" stroke-width="1" y2="142" x1="668" x2="668" />
 <text x="702" y="65" fill="black" transform="rotate(-45 702 65)" rotate="45" text-anchor="start" font-family="Courrier" font-size="6" >2009-06-23</text>
 <line stroke="grey" y1="70" stroke-width="1" y2="142" x1="702" x2="702" />
 <text x="737" y="65" fill="black" transform="rotate(-45 737 65)" rotate="45" text-anchor="start" font-family="Courrier" font-size="6" >2009-06-24</text>
 <line stroke="grey" y1="70" stroke-width="1" y2="142" x1="737" x2="737" />
 <text x="771" y="65" fill="black" transform="rotate(-45 771 65)" rotate="45" text-anchor="start" font-family="Courrier" font-size="6" >2009-06-25</text>
 <line stroke="grey" y1="70" stroke-width="1" y2="142" x1="771" x2="771" />
 <text x="805" y="65" fill="black" transform="rotate(-45 805 65)" rotate="45" text-anchor="start" font-family="Courrier" font-size="6" >2009-06-26</text>
 <line stroke="grey" y1="70" stroke-width="1" y2="142" x1="805" x2="805" />
 <text x="840" y="65" fill="black" transform="rotate(-45 840 65)" rotate="45" text-anchor="start" font-family="Courrier" font-size="6" >2009-06-27</text>
 <line stroke="grey" y1="70" stroke-width="1" y2="142" x1="840" x2="840" />
 <text x="874" y="65" fill="black" transform="rotate(-45 874 65)" rotate="45" text-anchor="start" font-family="Courrier" font-size="6" >2009-06-28</text>
 <line stroke="grey" y1="70" stroke-width="1" y2="142" x1="874" x2="874" />
 <text x="908" y="65" fill="black" transform="rotate(-45 908 65)" rotate="45" text-anchor="start" font-family="Courrier" font-size="6" >2009-06-29</text>
 <line stroke="grey" y1="70" stroke-width="1" y2="142" x1="908" x2="908" />
 <text x="942" y="65" fill="black" transform="rotate(-45 942 65)" rotate="45" text-anchor="start" font-family="Courrier" font-size="6" >2009-06-30</text>
 <line stroke="grey" y1="70" stroke-width="1" y2="142" x1="942" x2="942" />
 <text x="977" y="65" fill="black" transform="rotate(-45 977 65)" rotate="45" text-anchor="start" font-family="Courrier" font-size="6" >2009-07-01</text>
 <line stroke="grey" y1="70" stroke-width="1" y2="142" x1="977" x2="977" />
 <text x="1011" y="65" fill="black" transform="rotate(-45 1011 65)" rotate="45" text-anchor="start" font-family="Courrier" font-size="6" >2009-07-02</text>
 <line stroke="grey" y1="70" stroke-width="1" y2="142" x1="1011" x2="1011" />
 <text x="1045" y="65" fill="black" transform="rotate(-45 1045 65)" rotate="45" text-anchor="start" font-family="Courrier" font-size="6" >2009-07-03</text>
 <line stroke="grey" y1="70" stroke-width="1" y2="142" x1="1045" x2="1045" />
 <text x="1080" y="65" fill="black" transform="rotate(-45 1080 65)" rotate="45" text-anchor="start" font-family="Courrier" font-size="6" >2009-07-04</text>
 <line stroke="grey" y1="70" stroke-width="1" y2="142" x1="1080" x2="1080" />
 <text x="1114" y="65" fill="black" transform="rotate(-45 1114 65)" rotate="45" text-anchor="start" font-family="Courrier" font-size="6" >2009-07-05</text>
 <line stroke="grey" y1="70" stroke-width="1" y2="142" x1="1114" x2="1114" />
 <text x="1148" y="65" fill="black" transform="rotate(-45 1148 65)" rotate="45" text-anchor="start" font-family="Courrier" font-size="6" >2009-07-06</text>
 <line stroke="grey" y1="70" stroke-width="1" y2="142" x1="1148" x2="1148" />
 <text x="1182" y="65" fill="black" transform="rotate(-45 1182 65)" rotate="45" text-anchor="start" font-family="Courrier" font-size="6" >2009-07-07</text>
 <line stroke="grey" y1="70" stroke-width="1" y2="142" x1="1182" x2="1182" />
 <text x="1217" y="65" fill="black" transform="rotate(-45 1217 65)" rotate="45" text-anchor="start" font-family="Courrier" font-size="6" >2009-07-08</text>
 <line stroke="grey" y1="70" stroke-width="1" y2="142" x1="1217" x2="1217" />
 <text x="1251" y="65" fill="black" transform="rotate(-45 1251 65)" rotate="45" text-anchor="start" font-family="Courrier" font-size="6" >2009-07-09</text>
 <line stroke="grey" y1="70" stroke-width="1" y2="142" x1="1251" x2="1251" />
 <text x="1285" y="65" fill="black" transform="rotate(-45 1285 65)" rotate="45" text-anchor="start" font-family="Courrier" font-size="6" >2009-07-10</text>
 <line stroke="grey" y1="70" stroke-width="1" y2="142" x1="1285" x2="1285" />
 <text x="1320" y="65" fill="black" transform="rotate(-45 1320 65)" rotate="45" text-anchor="start" font-family="Courrier" font-size="6" >2009-07-11</text>
 <line stroke="grey" y1="70" stroke-width="1" y2="142" x1="1320" x2="1320" />
 <line stroke="red" y1="70" stroke-width="1" y2="142" x1="497" x2="497" />
<!--Conception--><!--Scenario : Plan--> <rect width="171" x="120" y="70" fill="lightblue" height="6" stroke="black" stroke-width="1" />
 <rect width="171" x="120" y="72" fill="black" height="2" stroke="none" />
 <text x="110" y="75" fill="black" text-anchor="end" font-family="Courrier" font-size="6" >Conception</text>
 <text x="301" y="75" fill="black" text-anchor="start" font-family="Courrier" font-size="6" >100%</text>
<!--Interfaces definition--><!--Scenario : Plan--> <rect width="171" x="291" y="79" fill="lightblue" height="6" stroke="black" stroke-width="1" />
 <rect width="171" x="291" y="81" fill="black" height="2" stroke="none" />
 <text x="281" y="84" fill="black" text-anchor="end" font-family="Courrier" font-size="6" >Interfaces definition</text>
 <text x="472" y="84" fill="black" text-anchor="start" font-family="Courrier" font-size="6" >100%</text>
<!--Dev part1--><!--Scenario : Plan--> <rect width="171" x="291" y="88" fill="lightblue" height="6" stroke="black" stroke-width="1" />
 <rect width="154" x="291" y="90" fill="black" height="2" stroke="none" />
 <text x="281" y="93" fill="black" text-anchor="end" font-family="Courrier" font-size="6" >Dev part1</text>
 <text x="472" y="93" fill="black" text-anchor="start" font-family="Courrier" font-size="6" >90%</text>
<!--Dev part2--><!--Scenario : Plan--> <rect width="172" x="462" y="97" fill="lightblue" height="6" stroke="black" stroke-width="1" />
 <rect width="34" x="462" y="99" fill="black" height="2" stroke="none" />
 <text x="452" y="102" fill="black" text-anchor="end" font-family="Courrier" font-size="6" >Dev part2</text>
 <text x="644" y="102" fill="black" text-anchor="start" font-family="Courrier" font-size="6" >20%</text>
<!--Dev part3--><!--Scenario : Plan--> <rect width="171" x="634" y="106" fill="lightblue" height="6" stroke="black" stroke-width="1" />
 <rect width="0" x="634" y="108" fill="black" height="2" stroke="none" />
 <text x="624" y="111" fill="black" text-anchor="end" font-family="Courrier" font-size="6" >Dev part3</text>
 <text x="815" y="111" fill="black" text-anchor="start" font-family="Courrier" font-size="6" >0%</text>
<!--Pre-tests--><!--Scenario : Plan--> <rect width="172" x="805" y="115" fill="lightblue" height="6" stroke="black" stroke-width="1" />
 <rect width="0" x="805" y="117" fill="black" height="2" stroke="none" />
 <text x="795" y="120" fill="black" text-anchor="end" font-family="Courrier" font-size="6" >Pre-tests</text>
 <text x="987" y="120" fill="black" text-anchor="start" font-family="Courrier" font-size="6" >0%</text>
<!--Auqlification--><!--Scenario : Plan--> <rect width="171" x="977" y="124" fill="lightblue" height="6" stroke="black" stroke-width="1" />
 <rect width="0" x="977" y="126" fill="black" height="2" stroke="none" />
 <text x="967" y="129" fill="black" text-anchor="end" font-family="Courrier" font-size="6" >Auqlification</text>
 <text x="1158" y="129" fill="black" text-anchor="start" font-family="Courrier" font-size="6" >0%</text>
<!--Acceptation--><!--Scenario : Plan--> <rect width="172" x="1148" y="133" fill="lightblue" height="6" stroke="black" stroke-width="1" />
 <rect width="0" x="1148" y="135" fill="black" height="2" stroke="none" />
 <text x="1138" y="138" fill="black" text-anchor="end" font-family="Courrier" font-size="6" >Acceptation</text>
 <text x="1330" y="138" fill="black" text-anchor="start" font-family="Courrier" font-size="6" >0%</text>
<!--Conception--> <path fill="none" stroke="darkorange" d="M291 73C300 73,282 82,291 82" />
 <path fill="none" stroke="darkorange" d="M291 73C309 73,273 91,291 91" />
<!--Interfaces definition--><!--Dev part1--> <path fill="none" stroke="darkorange" d="M462 91C471 91,453 100,462 100" />
<!--Dev part2--> <path fill="none" stroke="darkorange" d="M634 100C643 100,625 109,634 109" />
<!--Dev part3--> <path fill="none" stroke="darkorange" d="M805 109C814 109,796 118,805 118" />
<!--Pre-tests--> <path fill="none" stroke="darkorange" d="M977 118C986 118,968 127,977 127" />
<!--Auqlification--> <path fill="none" stroke="darkorange" d="M1148 127C1157 127,1139 136,1148 136" />
<!--Acceptation--></svg>
